# xmcd CD database file
#
# Track frame offsets:
#	150
#	15067
#	27953
#	42328
#	55459
#	67455
#	81612
#	97000
#	111384
#	122648
#	135777
#	150399
#	164180
#	179195
#	194394
#	210398
#	224193
#
# Disc length: 3247 seconds
#
# Revision: 1
# Processed by: cddbd v1.5.2PL0 Copyright (c) Steve Scherf et al.
# Submitted via: CDex 1.83
#
DISCID=050cad11
DTITLE=Louis Armstrong - Il grande jazz - Gli anni della leggenda
DYEAR=2004
DGENRE=Jazz
TTITLE0=West End Blues
TTITLE1=Heebie Jeebies
TTITLE2=St. James Infirmary
TTITLE3=Cornet Chop Suey
TTITLE4=Gut Bucket Blues
TTITLE5=Wild Man Blues
TTITLE6=Careless Love Blues
TTITLE7=Tight Like This
TTITLE8=Muskrat Ramble
TTITLE9=Potato Head Blues
TTITLE10=Basin Street Blues
TTITLE11=Struttin' with Some Barbecue
TTITLE12=When It's Sleepytime Down South
TTITLE13=Lawd! You Made the Night Too Long
TTITLE14=Stardust
TTITLE15=Perdido Street Blues
TTITLE16=Pennies from Heaven
EXTD=YEAR: 2004
EXTT0=
EXTT1=
EXTT2=
EXTT3=
EXTT4=
EXTT5=
EXTT6=
EXTT7=
EXTT8=
EXTT9=
EXTT10=
EXTT11=
EXTT12=
EXTT13=
EXTT14=
EXTT15=
EXTT16=
PLAYORDER=
